<svg width="18" height="18" viewBox="0 0 18 18" fill="none" xmlns="http://www.w3.org/2000/svg">
<path d="M9 1.6875C7.55373 1.6875 6.13993 2.11637 4.9374 2.91988C3.73486 3.72339 2.7976 4.86544 2.24413 6.20163C1.69067 7.53781 1.54586 9.00811 1.82801 10.4266C2.11017 11.8451 2.80661 13.148 3.82928 14.1707C4.85196 15.1934 6.15492 15.8898 7.57341 16.172C8.99189 16.4541 10.4622 16.3093 11.7984 15.7559C13.1346 15.2024 14.2766 14.2651 15.0801 13.0626C15.8836 11.8601 16.3125 10.4463 16.3125 9C16.3088 7.06175 15.5372 5.20394 14.1666 3.83339C12.7961 2.46283 10.9383 1.69122 9 1.6875ZM12.9375 9.5625H10.357L12.1852 11.3836C12.2908 11.4902 12.35 11.6343 12.35 11.7844C12.35 11.9345 12.2908 12.0785 12.1852 12.1852C12.0776 12.2891 11.9339 12.3472 11.7844 12.3472C11.6348 12.3472 11.4911 12.2891 11.3836 12.1852L8.59922 9.40078C8.49662 9.29242 8.43884 9.14923 8.4375 9C8.4375 8.85082 8.49677 8.70774 8.60226 8.60225C8.70775 8.49676 8.85082 8.4375 9 8.4375H12.9375C13.0867 8.4375 13.2298 8.49676 13.3353 8.60225C13.4407 8.70774 13.5 8.85082 13.5 9C13.5 9.14918 13.4407 9.29226 13.3353 9.39775C13.2298 9.50324 13.0867 9.5625 12.9375 9.5625Z" fill="#598CF4"/>
</svg>
