<svg width="24" height="24" viewBox="0 0 24 24" fill="none" xmlns="http://www.w3.org/2000/svg">
<path d="M17.25 8.4V7.875C17.25 5.52187 13.7063 3.75 9 3.75C4.29375 3.75 0.75 5.52187 0.75 7.875V11.625C0.75 13.5844 3.20625 15.1406 6.75 15.6094V16.125C6.75 18.4781 10.2937 20.25 15 20.25C19.7062 20.25 23.25 18.4781 23.25 16.125V12.375C23.25 10.4344 20.8687 8.87812 17.25 8.4ZM6.75 14.0812V11.8594C7.49613 11.9553 8.24774 12.0022 9 12C9.75226 12.0022 10.5039 11.9553 11.25 11.8594V14.0812C10.5057 14.1972 9.75329 14.2537 9 14.25C8.24671 14.2537 7.49432 14.1972 6.75 14.0812ZM15.75 10.3031V11.625C15.75 12.4125 14.5875 13.2562 12.75 13.7719V11.5781C13.9594 11.2875 14.9812 10.8469 15.75 10.3031ZM2.25 11.625V10.3031C3.01875 10.8469 4.04063 11.2875 5.25 11.5781V13.7719C3.4125 13.2562 2.25 12.4125 2.25 11.625ZM8.25 16.125V15.7313L9 15.75C9.36875 15.75 9.725 15.7406 10.0688 15.7219C10.4438 15.8531 10.8375 15.9656 11.25 16.0687V18.2719C9.4125 17.7562 8.25 16.9125 8.25 16.125ZM12.75 18.5812V16.35C13.496 16.4479 14.2476 16.498 15 16.5C15.7523 16.5022 16.5039 16.4553 17.25 16.3594V18.5812C15.7584 18.8062 14.2416 18.8062 12.75 18.5812ZM18.75 18.2719V16.0781C19.9594 15.7875 20.9813 15.3469 21.75 14.8031V16.125C21.75 16.9125 20.5875 17.7562 18.75 18.2719Z" fill="#598CF4"/>
</svg>
