<svg width="52" height="52" viewBox="0 0 52 52" fill="none" xmlns="http://www.w3.org/2000/svg">
<path d="M26 0C20.8577 0 15.8309 1.52487 11.5552 4.38179C7.27951 7.23871 3.94702 11.2994 1.97914 16.0502C0.0112654 20.8011 -0.503621 26.0288 0.499594 31.0723C1.50281 36.1159 3.97907 40.7486 7.61524 44.3848C11.2514 48.0209 15.8842 50.4972 20.9277 51.5004C25.9712 52.5036 31.1989 51.9887 35.9498 50.0209C40.7007 48.053 44.7613 44.7205 47.6182 40.4448C50.4751 36.1691 52 31.1423 52 26C51.9868 19.1084 49.2433 12.5029 44.3702 7.62982C39.4971 2.75674 32.8916 0.0132149 26 0ZM22 34C22 34.5304 21.7893 35.0391 21.4142 35.4142C21.0392 35.7893 20.5304 36 20 36C19.4696 36 18.9609 35.7893 18.5858 35.4142C18.2107 35.0391 18 34.5304 18 34V18C18 17.4696 18.2107 16.9609 18.5858 16.5858C18.9609 16.2107 19.4696 16 20 16C20.5304 16 21.0392 16.2107 21.4142 16.5858C21.7893 16.9609 22 17.4696 22 18V34ZM34 34C34 34.5304 33.7893 35.0391 33.4142 35.4142C33.0392 35.7893 32.5304 36 32 36C31.4696 36 30.9609 35.7893 30.5858 35.4142C30.2107 35.0391 30 34.5304 30 34V18C30 17.4696 30.2107 16.9609 30.5858 16.5858C30.9609 16.2107 31.4696 16 32 16C32.5304 16 33.0392 16.2107 33.4142 16.5858C33.7893 16.9609 34 17.4696 34 18V34Z" fill="#F9F8FF"/>
</svg>
