<svg width="52" height="52" viewBox="0 0 52 52" fill="none" xmlns="http://www.w3.org/2000/svg">
<path d="M26 0C20.8577 0 15.8309 1.52487 11.5552 4.38179C7.27951 7.23871 3.94702 11.2994 1.97914 16.0502C0.0112654 20.8011 -0.503621 26.0288 0.499594 31.0723C1.50281 36.1159 3.97907 40.7486 7.61524 44.3848C11.2514 48.0209 15.8842 50.4972 20.9277 51.5004C25.9712 52.5036 31.1989 51.9887 35.9498 50.0209C40.7007 48.053 44.7613 44.7205 47.6182 40.4448C50.4751 36.1691 52 31.1423 52 26C51.9868 19.1084 49.2433 12.5029 44.3702 7.62982C39.4971 2.75674 32.8916 0.0132149 26 0ZM35.1 27.675L23.1 35.675C22.769 35.8798 22.3892 35.992 22 36C21.6702 35.9997 21.3449 35.9227 21.05 35.775C20.7303 35.6024 20.4636 35.346 20.2786 35.0333C20.0936 34.7205 19.9973 34.3633 20 34V18C19.9973 17.6367 20.0936 17.2795 20.2786 16.9667C20.4636 16.654 20.7303 16.3976 21.05 16.225C21.3711 16.0625 21.7288 15.9863 22.0882 16.0038C22.4476 16.0213 22.7963 16.132 23.1 16.325L35.1 24.325C35.3786 24.5068 35.6074 24.7551 35.7658 25.0476C35.9242 25.34 36.0071 25.6674 36.0071 26C36.0071 26.3326 35.9242 26.66 35.7658 26.9524C35.6074 27.2449 35.3786 27.4932 35.1 27.675Z" fill="#FAFAFB"/>
</svg>
