<svg width="16" height="17" viewBox="0 0 16 17" fill="none" xmlns="http://www.w3.org/2000/svg">
<path d="M0 8.5C0 6.91775 0.46919 5.37104 1.34824 4.05545C2.22729 2.73985 3.47673 1.71447 4.93853 1.10897C6.40034 0.503467 8.00888 0.345039 9.56073 0.653721C11.1126 0.962403 12.538 1.72433 13.6569 2.84315C14.7757 3.96197 15.5376 5.38744 15.8463 6.93929C16.155 8.49113 15.9965 10.0997 15.391 11.5615C14.7855 13.0233 13.7602 14.2727 12.4446 15.1518C11.129 16.0308 9.58224 16.5 7.99999 16.5C5.87826 16.5 3.84344 15.6572 2.34315 14.1569C0.842858 12.6566 0 10.6217 0 8.5Z" fill="#598CF4"/>
<path d="M10.1236 12.0483L10.176 12.027L11.0534 11.5157L11.9586 10.9893C12.0069 10.9629 12.0505 10.929 12.0879 10.8888C12.154 10.819 12.197 10.7309 12.211 10.6363C12.211 10.5937 12.211 8.50609 12.211 8.46044C12.1943 8.3555 12.146 8.25795 12.0725 8.18047C12.0036 8.11618 11.9259 8.06188 11.8416 8.01919L10.1944 7.06669C10.1253 7.03568 10.0502 7.01963 9.97431 7.01963C9.89838 7.01963 9.82332 7.03568 9.75418 7.06669C9.72647 7.06669 9.53867 7.18537 9.12304 7.42578L8.1132 8.01311L7.11569 8.5913C6.80782 8.77997 6.52149 8.93821 6.49994 8.9443C6.43035 8.97922 6.35324 8.99697 6.2752 8.99603C6.19791 8.99621 6.1214 8.98067 6.05045 8.95038C6.01658 8.95038 5.09603 8.40566 5.04677 8.36915C4.99857 8.33291 4.95603 8.28985 4.92054 8.24134C4.88115 8.18192 4.85298 8.11593 4.83742 8.04658C4.82642 7.84385 4.82642 7.64068 4.83742 7.43795C4.81265 7.20171 4.8199 6.96326 4.85897 6.72891C4.8792 6.6717 4.90716 6.61744 4.9421 6.56763C4.97704 6.5204 5.0197 6.47926 5.06833 6.4459C5.10527 6.42155 5.99195 5.90119 6.01966 5.87988C6.09111 5.84738 6.16883 5.83055 6.24748 5.83055C6.32614 5.83055 6.40387 5.84738 6.47532 5.87988C6.5061 5.8951 7.39894 6.41547 7.46667 6.45503C7.5319 6.49877 7.5857 6.55717 7.62368 6.62544C7.64841 6.66729 7.66707 6.71236 7.67911 6.75934V6.80499V7.18538C7.67911 7.39535 7.67911 7.56881 7.67911 7.56881L8.08858 7.33449L8.49189 7.10017V6.71978C8.49189 6.29679 8.49189 6.312 8.46418 6.22679C8.42676 6.12437 8.36054 6.03464 8.2733 5.96814C8.24252 5.94683 6.56767 4.97304 6.48762 4.93043L6.42297 4.9H6.39527H6.08739L6.04121 4.91826C6.00735 4.93347 5.77028 5.06738 5.11759 5.44472C4.63422 5.72469 4.22783 5.96205 4.21243 5.97422C4.15687 6.01248 4.10951 6.0612 4.07305 6.1176C4.0366 6.174 4.01177 6.23696 4 6.30287C4 6.34547 4 6.37895 4 7.4197C4 8.46044 4 8.49696 4 8.53652C4.01184 8.60409 4.03808 8.6684 4.07697 8.72519C4.11707 8.78203 4.16589 8.83234 4.22167 8.8743C4.26169 8.89865 5.9704 9.89375 6.0135 9.91505C6.0872 9.94925 6.16761 9.96697 6.24902 9.96697C6.33044 9.96697 6.41086 9.94925 6.48455 9.91505L7.1003 9.55292C7.60214 9.24861 7.75915 9.16644 8.09473 8.98081C8.43031 8.79518 8.52268 8.74345 9.09225 8.39958L9.708 8.02527C9.83706 7.96676 9.98433 7.9613 10.1175 8.01006C10.139 8.01543 10.1597 8.02361 10.179 8.0344C10.216 8.05266 11.1427 8.61259 11.1704 8.64302C11.2756 8.72546 11.3459 8.84375 11.3674 8.97472C11.3674 9.0295 11.3674 10.1646 11.3674 10.2194C11.3456 10.3541 11.2716 10.4752 11.1612 10.5571C11.1304 10.5784 10.2375 11.1079 10.1667 11.1384C10.0965 11.1693 10.0204 11.1853 9.94352 11.1853C9.86661 11.1853 9.79055 11.1693 9.72031 11.1384C9.69568 11.1384 9.51711 11.0227 9.21232 10.8341L8.71664 10.5298C8.62828 10.463 8.56187 10.372 8.52576 10.268C8.50113 10.192 8.50112 10.2133 8.49805 9.78724V9.39772L8.09473 9.63203L7.69142 9.86636V10.2589C7.69142 10.6849 7.69142 10.6819 7.71297 10.7549C7.73046 10.8084 7.75644 10.8587 7.78994 10.9041C7.82461 10.9505 7.86612 10.9915 7.91309 11.0258C7.94079 11.0471 9.64334 12.0452 9.68337 12.0665C9.72339 12.0878 9.74494 12.1 9.91427 12.1H10.0651L10.1236 12.0483Z" fill="white"/>
</svg>
